# xmcd
#
# Track frame offsets: 
#        150
#        16758
#        40161
#        59235
#        80515
#        102428
#        115510
#        141592
#        158437
#        179225
#        205485
#        228274
#        249282
#        281882
#
# Disc length: 4090 seconds
#
# Revision: 0
# Processed by: cddbd v1.5.1PL2 Copyright (c) Steve Scherf et al.
# Submitted via: ExactAudioCopy v0.95b3
#
DISCID=c70ff80e
DTITLE=Jorma Kaukonen - Old Waldorf - San Francisco
DYEAR=1978
DGENRE=Acoustic
TTITLE0=Come Back Baby
TTITLE1=Trial By Fire
TTITLE2=Another Man Done Gone
TTITLE3=Watch the North Wind Rise
TTITLE4=Police Dog Blues
TTITLE5=Let Us Get Together
TTITLE6=Sea Child
TTITLE7=Another Man Done Gone
TTITLE8=Genesis
TTITLE9=Water Song
TTITLE10=Whinin' Boy Blues
TTITLE11=Police Dog Blues
TTITLE12=Killing Time in the Crystal City
TTITLE13=Mann's Fate
EXTD=
EXTT0=
EXTT1=
EXTT2=
EXTT3=
EXTT4=
EXTT5=
EXTT6=
EXTT7=
EXTT8=
EXTT9=
EXTT10=
EXTT11=
EXTT12=
EXTT13=
PLAYORDER=
